<?xml version="1.0" encoding="UTF-8"?>
<!-- Generator: visioncortex VTracer 0.6.2 -->
<svg version="1.1" xmlns="http://www.w3.org/2000/svg" width="1280" height="425">
<path d="M0 0 C422.4 0 844.8 0 1280 0 C1280 140.25 1280 280.5 1280 425 C857.6 425 435.2 425 0 425 C0 284.75 0 144.5 0 0 Z " fill="#FAFCFC" transform="translate(0,0)"/>
<path d="M0 0 C-0.69219249 4.49192208 -2.28955962 8.50685065 -4.01953125 12.6796875 C-4.31937424 13.41067657 -4.61921722 14.14166565 -4.92814636 14.89480591 C-5.56224903 16.43713888 -6.19863484 17.9785349 -6.8371582 19.51904297 C-7.80528096 21.85756228 -8.7634607 24.19997815 -9.72070312 26.54296875 C-10.34054861 28.04712125 -10.96097283 29.55103541 -11.58203125 31.0546875 C-11.86448196 31.74658173 -12.14693268 32.43847595 -12.4379425 33.15133667 C-14.31473954 37.65437929 -16.50556656 41.80613363 -19 46 C-19.61294922 45.74307373 -20.22589844 45.48614746 -20.85742188 45.22143555 C-40.29203016 37.1485144 -56.96990438 31.59743793 -78 36 C-78 36.99 -78 37.98 -78 39 C-67.71629078 42.32284286 -57.35412441 44.89295977 -46.81640625 47.26757812 C-29.51090394 51.30306612 -11.94984008 57.13226201 -1.64453125 72.33203125 C5.97258881 84.6894968 6.83386402 98.53813719 4.3515625 112.69921875 C-0.03164568 127.0289378 -10.80137648 138.2077533 -23.70532227 145.3215332 C-39.17806764 153.4890318 -54.47988608 155.54922142 -71.69433594 154.96386719 C-74.36385323 154.87536953 -77.03269209 154.81860199 -79.703125 154.765625 C-93.73766603 154.41392419 -107.14111141 152.63708536 -120.5625 148.3125 C-121.34407471 148.06483887 -122.12564941 147.81717773 -122.9309082 147.56201172 C-130.78316147 144.94911088 -137.88790094 141.18859048 -145 137 C-142.10703857 127.23901565 -137.60468307 118.18888894 -133.31933594 108.98193359 C-132.29962499 106.78684154 -131.28633874 104.58886563 -130.2734375 102.390625 C-129.95990326 101.7228302 -129.64636902 101.0550354 -129.32333374 100.36700439 C-127.74259098 96.93266529 -126.54347941 93.74955875 -126 90 C-121.74921866 90.22372533 -119.09397609 91.4646948 -115.625 93.75 C-111.22874942 96.51259855 -106.92752786 98.23151929 -102 99.75 C-101.0402124 100.04729004 -101.0402124 100.04729004 -100.06103516 100.35058594 C-98.04981488 100.94406077 -96.03206173 101.48244824 -94 102 C-93.26990723 102.19126465 -92.53981445 102.3825293 -91.78759766 102.57958984 C-84.3299171 104.31782314 -76.99935279 104.22707681 -69.375 104.125 C-68.08464844 104.11597656 -66.79429688 104.10695313 -65.46484375 104.09765625 C-62.30969751 104.0742848 -59.15495074 104.04152091 -56 104 C-60.2026719 98.85458698 -64.21875264 97.69694522 -70.578125 96.24609375 C-71.50413513 96.01849869 -72.43014526 95.79090363 -73.38421631 95.55641174 C-76.33570476 94.83331912 -79.29211939 94.13393986 -82.25 93.4375 C-85.19267135 92.73432184 -88.13385468 92.0259124 -91.07293701 91.30787659 C-92.89721504 90.86322734 -94.72366755 90.42736881 -96.55255127 90.00205994 C-102.37352435 88.59668254 -107.60526589 86.58568795 -113 84 C-113.89589844 83.60296875 -114.79179688 83.2059375 -115.71484375 82.796875 C-129.19355336 76.44837909 -135.5560506 68.33904577 -140.87109375 54.77734375 C-144.34382553 43.49695292 -142.26591387 29.78752685 -137.2578125 19.2890625 C-131.29386968 8.43542742 -123.9847643 0.41926186 -112.9375 -5.1875 C-111.69492432 -5.83029907 -111.69492432 -5.83029907 -110.42724609 -6.48608398 C-103.47905668 -9.97491362 -96.61752519 -12.35882587 -89 -14 C-87.76636719 -14.27457031 -87.76636719 -14.27457031 -86.5078125 -14.5546875 C-57.36699295 -19.72922555 -25.45772169 -15.10748635 0 0 Z " fill="#FC3230" transform="translate(175,130)"/>
<path d="M0 0 C1.09445938 0.00212242 1.09445938 0.00212242 2.21102905 0.00428772 C4.54437335 0.00989094 6.87762214 0.0224439 9.2109375 0.03515625 C10.79166528 0.04017084 12.37239457 0.04473382 13.953125 0.04882812 C17.83076604 0.05986141 21.70833557 0.07712814 25.5859375 0.09765625 C29.08787711 6.8279133 32.30937545 13.39834084 34.5234375 20.66015625 C36.88199861 28.08478176 39.49142712 35.37959956 42.31420898 42.64086914 C43.57808492 45.97132859 44.55582623 48.84064593 44.97265625 52.3984375 C45.72088663 56.9116488 47.3746367 60.64424275 49.18652344 64.828125 C51.5485723 70.34671508 53.61833886 75.97259752 55.7109375 81.59765625 C56.35482422 83.29728516 56.35482422 83.29728516 57.01171875 85.03125 C59.40475443 91.45931201 61.35205429 97.82085082 62.92871094 104.49462891 C63.72507883 107.64874277 64.83311502 110.56228005 66.1484375 113.53515625 C66.56222656 114.48261719 66.97601562 115.43007812 67.40234375 116.40625 C67.79292969 117.29441406 68.18351563 118.18257813 68.5859375 119.09765625 C69.25928902 120.7616334 69.92816489 122.42745943 70.5859375 124.09765625 C71.2459375 124.09765625 71.9059375 124.09765625 72.5859375 124.09765625 C72.6890625 123.25203125 72.7921875 122.40640625 72.8984375 121.53515625 C73.45285104 118.76308854 74.05790192 116.85906252 75.2109375 114.34765625 C75.6646875 113.27515625 76.1184375 112.20265625 76.5859375 111.09765625 C76.2559375 110.43765625 75.9259375 109.77765625 75.5859375 109.09765625 C76.2459375 109.09765625 76.9059375 109.09765625 77.5859375 109.09765625 C77.6478125 108.02515625 77.7096875 106.95265625 77.7734375 105.84765625 C78.37376086 101.15053156 80.0968528 97.29270505 81.98828125 92.98046875 C84.15103826 87.88523076 85.90638284 82.64024988 87.7109375 77.41015625 C88.04746338 76.43618896 88.38398926 75.46222168 88.73071289 74.45874023 C90.24926896 70.04340806 91.74602163 65.62220149 93.20703125 61.1875 C94.20328157 58.18636285 95.2854779 55.25925223 96.5234375 52.34765625 C98.00525595 48.71288849 99.24043027 45.07409129 100.359375 41.3125 C102.58380736 34.00033067 105.0363024 26.77762161 107.5324707 19.55493164 C108.28543187 17.37543778 109.03452028 15.19463867 109.78320312 13.01367188 C113.44605108 2.37742909 113.44605108 2.37742909 114.5859375 0.09765625 C119.67623694 0.02361415 124.76622442 -0.03089383 129.85693359 -0.06713867 C131.58941099 -0.08224465 133.32185004 -0.10273069 135.05419922 -0.12866211 C137.54143728 -0.16496696 140.02817076 -0.1820514 142.515625 -0.1953125 C143.68132523 -0.21853828 143.68132523 -0.21853828 144.87057495 -0.24223328 C147.05419922 -0.24291992 147.05419922 -0.24291992 150.5859375 0.09765625 C152.5859375 3.09765625 152.5859375 3.09765625 152.33203125 5.3984375 C151.50568528 8.38799282 150.61837254 11.3387498 149.6484375 14.28515625 C149.13990234 15.85330078 149.13990234 15.85330078 148.62109375 17.453125 C147.5859375 20.09765625 147.5859375 20.09765625 145.5859375 22.09765625 C144.71963715 24.31677875 144.71963715 24.31677875 144.0234375 26.84765625 C143.77464844 27.688125 143.52585937 28.52859375 143.26953125 29.39453125 C142.53118482 32.13041711 142.53118482 32.13041711 142.12890625 35.109375 C141.58484495 38.10366921 140.71886455 40.39854818 139.4609375 43.16015625 C135.22912377 52.97697997 132.13689665 63.22562134 128.84423828 73.38647461 C126.97539672 79.09026944 124.87457445 84.68734753 122.7109375 90.28515625 C119.05270108 99.82021574 115.47887778 109.37420106 112.265625 119.0703125 C110.07653889 125.66180937 107.79316887 132.22111616 105.5234375 138.78515625 C104.85064759 140.73143272 104.17800753 142.67776049 103.50575256 144.6242218 C102.89863722 146.38200852 102.29100925 148.13961817 101.68334961 149.8972168 C100.63365253 152.95850246 99.60445353 156.02587221 98.5859375 159.09765625 C97.9259375 159.09765625 97.2659375 159.09765625 96.5859375 159.09765625 C96.40417969 160.29261719 96.40417969 160.29261719 96.21875 161.51171875 C94.39244624 173.05957788 94.39244624 173.05957788 92.5859375 177.09765625 C88.79539307 179.62468587 85.73290964 179.40356214 81.33984375 179.3984375 C80.12856056 179.40486519 80.12856056 179.40486519 78.89280701 179.41142273 C77.18562762 179.41716324 75.47842376 179.41766833 73.77124023 179.41333008 C71.1615212 179.41017208 68.55293808 179.43362476 65.94335938 179.45898438 C64.2838556 179.46125763 62.62434877 179.46196074 60.96484375 179.4609375 C60.18557022 179.47014725 59.40629669 179.47935699 58.60340881 179.48884583 C54.19157959 179.45124181 51.81335352 179.1158726 48.5859375 176.09765625 C47.52441406 174.02661133 47.52441406 174.02661133 46.7265625 171.6171875 C46.41944336 170.71194336 46.11232422 169.80669922 45.79589844 168.87402344 C45.47911133 167.89594727 45.16232422 166.91787109 44.8359375 165.91015625 C44.49594727 164.89727539 44.15595703 163.88439453 43.80566406 162.84082031 C42.71978797 159.59715187 41.65245264 156.347736 40.5859375 153.09765625 C39.51532827 149.87761539 38.44098664 146.65883777 37.36621094 143.44018555 C36.69946805 141.43885092 36.03584742 139.43647227 35.37597656 137.43286133 C33.49439332 131.73233538 31.51429253 126.07982565 29.42866516 120.45057678 C28.37783669 117.51663264 27.55532358 114.55100256 26.7734375 111.53515625 C24.54725462 103.54193268 21.51954421 95.91936593 18.43652344 88.22363281 C17.1972087 85.12605739 15.98163694 82.02001871 14.7734375 78.91015625 C14.39574219 77.94722656 14.01804687 76.98429687 13.62890625 75.9921875 C12.453417 72.72987463 11.53075864 69.43416486 10.5859375 66.09765625 C6.90884858 54.3469876 2.80990897 42.76151641 -1.66064453 31.29052734 C-3.74226894 25.94035947 -5.6474557 20.55979164 -7.4140625 15.09765625 C-7.8059375 13.90140625 -8.1978125 12.70515625 -8.6015625 11.47265625 C-9.46192196 7.89885543 -9.5635375 4.75979365 -9.4140625 1.09765625 C-6.40193221 -0.4084089 -3.30123628 -0.02394706 0 0 Z " fill="#010403" transform="translate(725.4140625,113.90234375)"/>
<path d="M0 0 C2.4441021 2.14739775 4.73290252 4.37866596 7.01171875 6.69921875 C8.09839844 7.65054688 8.09839844 7.65054688 9.20703125 8.62109375 C12.14058968 11.40509822 13.82845905 13.37105824 14.390625 17.4453125 C13.57994243 36.33667301 0.31722107 53.82660339 -12.87109375 66.4609375 C-29.53017502 80.96544426 -50.50307356 89.93328331 -72.05078125 94.07421875 C-72.91856201 94.24179688 -73.78634277 94.409375 -74.68041992 94.58203125 C-79.86278308 95.51000675 -84.72523619 95.85741432 -89.98828125 95.69921875 C-88.00828125 95.20421875 -88.00828125 95.20421875 -85.98828125 94.69921875 C-85.98828125 94.03921875 -85.98828125 93.37921875 -85.98828125 92.69921875 C-84.89773438 92.27962891 -84.89773438 92.27962891 -83.78515625 91.8515625 C-76.06222089 88.77228956 -69.06101447 85.05239634 -61.98828125 80.69921875 C-61.09496094 80.17714844 -60.20164062 79.65507812 -59.28125 79.1171875 C-51.09163063 74.18902709 -44.05005908 68.09281352 -36.98828125 61.69921875 C-36.15039062 60.94640625 -35.3125 60.19359375 -34.44921875 59.41796875 C-25.13445173 50.59691729 -15.16835991 38.14622627 -12.23828125 25.44921875 C-13.86436274 19.48691997 -19.89752123 16.59725121 -24.92578125 13.57421875 C-41.05375292 5.22458764 -59.88346836 4.20911928 -77.16796875 9.375 C-94.44970029 15.09018371 -107.90620607 25.67575591 -116.36328125 41.94921875 C-116.92317373 43.19116206 -117.46582841 44.44106701 -117.98828125 45.69921875 C-118.2615625 46.30765625 -118.53484375 46.91609375 -118.81640625 47.54296875 C-121.97597371 55.10114974 -123.32382779 63.53039598 -122.98828125 71.69921875 C-122.49328125 72.68921875 -122.49328125 72.68921875 -121.98828125 73.69921875 C-121.33980225 73.0350293 -121.33980225 73.0350293 -120.67822266 72.35742188 C-101.21963862 52.49054351 -82.94551554 39.40128569 -55.98828125 31.69921875 C-54.99828125 31.36921875 -54.00828125 31.03921875 -52.98828125 30.69921875 C-51.50328125 31.19421875 -51.50328125 31.19421875 -49.98828125 31.69921875 C-50.84808594 32.16070312 -51.70789063 32.6221875 -52.59375 33.09765625 C-79.28347838 47.7100161 -102.35989107 70.73911326 -114.98828125 98.69921875 C-115.11007564 105.27611606 -112.12569471 108.97074623 -107.98828125 113.69921875 C-107.15490234 114.67375 -107.15490234 114.67375 -106.3046875 115.66796875 C-97.84883717 124.83301943 -86.87585265 131.16450725 -74.98828125 134.69921875 C-73.99828125 135.02921875 -73.00828125 135.35921875 -71.98828125 135.69921875 C-49.12865622 138.28645426 -27.25341699 136.2388157 -7.9765625 122.5625 C-5.22138022 120.36065977 -2.59237148 118.07721742 0.01171875 115.69921875 C1.18154297 114.66861328 1.18154297 114.66861328 2.375 113.6171875 C7.63288999 108.72253688 11.4043899 103.38634016 15.00634766 97.2199707 C15.93429066 95.66648896 16.96572316 94.17579485 18.01171875 92.69921875 C19.00171875 92.69921875 19.99171875 92.69921875 21.01171875 92.69921875 C21.68424892 110.72676351 19.17360449 123.9107384 6.57421875 137.76171875 C0.56230406 143.47893174 -6.87422447 147.51447947 -13.98828125 151.69921875 C-14.58568115 152.0657959 -15.18308105 152.43237305 -15.79858398 152.81005859 C-19.73983686 155.17909369 -23.49316565 156.63753426 -27.92578125 157.82421875 C-29.06917969 158.13617188 -30.21257812 158.448125 -31.390625 158.76953125 C-32.57785156 159.07632813 -33.76507812 159.383125 -34.98828125 159.69921875 C-36.19226563 160.05757812 -37.39625 160.4159375 -38.63671875 160.78515625 C-62.60185558 166.67638176 -87.44778799 159.27919035 -107.97607422 146.97509766 C-112.70260949 143.97814627 -116.89871974 140.52176421 -120.98828125 136.69921875 C-121.67664063 136.10109375 -122.365 135.50296875 -123.07421875 134.88671875 C-134.03953697 124.83156528 -140.68403569 111.74242898 -144.98828125 97.69921875 C-145.25463379 96.89564941 -145.52098633 96.09208008 -145.79541016 95.26416016 C-148.13369519 87.67689064 -148.52992106 80.48370101 -148.48828125 72.57421875 C-148.48183594 71.29321289 -148.47539063 70.01220703 -148.46875 68.69238281 C-148.2741105 58.56856751 -146.94070554 49.99400706 -142.98828125 40.69921875 C-142.69356934 39.97814941 -142.39885742 39.25708008 -142.09521484 38.51416016 C-138.24462683 29.22909691 -133.93683265 21.06854986 -126.98828125 13.69921875 C-126.22572021 12.87744141 -126.22572021 12.87744141 -125.44775391 12.0390625 C-118.2968694 4.3861078 -111.27728489 -2.27815563 -101.98828125 -7.30078125 C-101.26253906 -7.73390625 -100.53679688 -8.16703125 -99.7890625 -8.61328125 C-94.12682907 -11.77543605 -88.10055168 -13.66192829 -81.92578125 -15.55078125 C-80.66713257 -15.93858765 -80.66713257 -15.93858765 -79.38305664 -16.33422852 C-52.37210162 -24.26897767 -22.10149949 -17.01671007 0 0 Z " fill="#00BF65" transform="translate(1044.98828125,129.30078125)"/>
<path d="M0 0 C2.23678588 0.00051972 4.47357223 -0.0000023 6.71035767 -0.00151062 C11.36133785 -0.00142157 16.01214225 0.0088805 20.66308594 0.02709961 C26.63296404 0.04997035 32.60259018 0.05029046 38.57250023 0.04358196 C43.17400367 0.04025049 47.7754492 0.04685343 52.37694168 0.0567112 C54.58024417 0.06056387 56.78355308 0.06171114 58.98685837 0.06012535 C62.0478436 0.05975636 65.1084979 0.07232191 68.16943359 0.08862305 C69.08153091 0.08614563 69.99362823 0.08366821 70.93336487 0.08111572 C77.18529791 0.13451666 77.18529791 0.13451666 79.4140625 2.36328125 C78.92035156 3.05035156 78.42664063 3.73742187 77.91796875 4.4453125 C77.27730469 5.34636719 76.63664063 6.24742188 75.9765625 7.17578125 C75.33847656 8.06910156 74.70039062 8.96242188 74.04296875 9.8828125 C72.28115982 12.33462459 72.28115982 12.33462459 71.4140625 15.36328125 C70.7540625 15.36328125 70.0940625 15.36328125 69.4140625 15.36328125 C69.4140625 16.35328125 69.4140625 17.34328125 69.4140625 18.36328125 C68.7540625 18.36328125 68.0940625 18.36328125 67.4140625 18.36328125 C67.14763947 19.07011047 66.88121643 19.7769397 66.60671997 20.50518799 C64.33720169 25.94387853 61.93043538 30.46962389 57.4140625 34.36328125 C51.84940775 35.95571364 46.48272664 35.81400324 40.734375 35.69140625 C39.11390276 35.69587308 37.4934373 35.70504284 35.87301636 35.71868896 C31.62791054 35.74126127 27.38597484 35.69755506 23.14129639 35.64044189 C18.81026251 35.59523701 14.47960383 35.61828664 10.1484375 35.6328125 C3.83711231 35.64115914 -2.47370964 35.63230851 -8.78466797 35.55957031 C-10.05293427 35.54637756 -11.32120056 35.53318481 -12.62789917 35.51959229 C-15.5859375 35.36328125 -15.5859375 35.36328125 -17.5859375 34.36328125 C-17.5859375 35.02328125 -17.5859375 35.68328125 -17.5859375 36.36328125 C-18.15441406 36.51023438 -18.72289062 36.6571875 -19.30859375 36.80859375 C-26.49181219 38.89520478 -31.4096649 42.09887234 -35.5859375 48.36328125 C-38.78137707 55.37354074 -39.21616239 61.12118085 -36.93359375 68.4609375 C-34.2131612 74.96740983 -29.10904729 79.07768478 -22.90942383 82.21044922 C-14.26269823 85.75344635 -4.38515777 84.83243116 4.80395508 84.87451172 C7.16256888 84.89013638 9.52049694 84.92307801 11.87890625 84.95703125 C12.60593246 84.95401001 13.33295868 84.95098877 14.08201599 84.94787598 C16.11694336 84.97851562 16.11694336 84.97851562 19.4140625 85.36328125 C20.4040625 86.84828125 20.4040625 86.84828125 21.4140625 88.36328125 C20.84860718 89.20753662 20.84860718 89.20753662 20.27172852 90.06884766 C11.35537533 103.36119413 11.35537533 103.36119413 2.6640625 116.80078125 C-0.71843421 122.10715155 -4.300776 127.22364551 -7.99047852 132.31713867 C-11.15288251 136.70094463 -14.0785278 141.19918702 -16.94140625 145.78515625 C-19.12602386 149.20997245 -21.47645726 152.50508934 -23.828125 155.81640625 C-26.28328642 159.37366235 -28.55187034 163.03948402 -30.8125 166.72265625 C-31.39773438 167.5940625 -31.98296875 168.46546875 -32.5859375 169.36328125 C-33.23892822 170.39565918 -33.89191895 171.42803711 -34.56469727 172.49169922 C-36.24829269 174.47837082 -37.18357114 175.26475048 -39.73394775 175.88928223 C-42.40830244 176.05804348 -45.02095346 176.03776906 -47.69921875 175.94921875 C-49.15354561 175.93648422 -49.15354561 175.93648422 -50.63725281 175.92349243 C-53.72545815 175.88997994 -56.81102528 175.81470353 -59.8984375 175.73828125 C-61.99540492 175.70817892 -64.09241339 175.68080358 -66.18945312 175.65625 C-71.32262675 175.59019532 -76.4538353 175.48668712 -81.5859375 175.36328125 C-81.5859375 171.36223285 -79.62744548 169.57404778 -77.2109375 166.61328125 C-73.41862892 161.83270695 -69.87355175 156.96363236 -66.5234375 151.86328125 C-66.10771484 151.23115723 -65.69199219 150.5990332 -65.26367188 149.94775391 C-64.43545716 148.68766591 -63.60749094 147.42741455 -62.77978516 146.16699219 C-55.64730342 135.39096457 -48.05085342 124.91015907 -40.5859375 114.36328125 C-43.67172032 110.92462302 -46.78223262 109.04880214 -50.8984375 106.98828125 C-64.56947322 99.74797854 -70.60907105 90.23649939 -75.640625 75.625 C-80.07572574 60.32206975 -78.0926706 43.42742536 -70.7109375 29.36328125 C-69.69420871 27.68128547 -68.65421111 26.01302024 -67.5859375 24.36328125 C-67.16957031 23.65945312 -66.75320313 22.955625 -66.32421875 22.23046875 C-59.09591494 11.16009355 -45.31848764 4.42609952 -32.76708984 1.78442383 C-21.91573956 -0.30186774 -11.00748265 -0.05092797 0 0 Z " fill="#000302" transform="translate(490.5859375,110.63671875)"/>
<path d="M0 0 C3.44006746 3.11134991 5.6639463 6.53547804 7.875 10.5625 C8.22522217 11.18745361 8.57544434 11.81240723 8.9362793 12.45629883 C10.92556979 16.01682402 12.87250099 19.59990762 14.8125 23.1875 C20.56419604 33.80241871 26.74287834 44.18931937 32.88232422 54.58325195 C36.67659511 61.00816763 40.43796117 67.45033637 44.125 73.9375 C44.51574707 74.6183667 44.90649414 75.2992334 45.30908203 76.00073242 C48 80.76643503 48 80.76643503 48 83 C48.66 83 49.32 83 50 83 C50.47566406 83.89525391 50.47566406 83.89525391 50.9609375 84.80859375 C55.73380242 93.6819034 60.8647171 102.33326889 66 111 C75.74340192 127.44377656 75.74340192 127.44377656 79.125 133.75 C81.89050817 138.90603219 84.96852914 143.84220908 88.05859375 148.80859375 C90.33517724 152.55098552 92.42372131 156.37046216 94.4921875 160.23046875 C98.13825098 166.92751282 102.07445206 173.46404145 106 180 C99.37985308 180.10139564 92.75990628 180.17146336 86.13916016 180.21972656 C83.88680539 180.23984556 81.63450287 180.26714408 79.38232422 180.30175781 C76.14537669 180.35026209 72.90911953 180.37296605 69.671875 180.390625 C68.16074127 180.42159271 68.16074127 180.42159271 66.61907959 180.45318604 C59.66326849 180.45542009 59.66326849 180.45542009 56.50927734 178.28979492 C54.92981543 175.89351972 53.49496347 173.5249911 52.1796875 170.97265625 C50.06974121 166.97916131 47.88934126 163.05975942 45.5703125 159.18359375 C45.003125 158.23548828 44.4359375 157.28738281 43.8515625 156.31054688 C42.67878021 154.3590053 41.50423843 152.40852023 40.328125 150.45898438 C39.76867187 149.52248047 39.20921875 148.58597656 38.6328125 147.62109375 C37.87315186 146.35930298 37.87315186 146.35930298 37.09814453 145.07202148 C36 143 36 143 36 141 C7.29 141 -21.42 141 -51 141 C-51.33 140.34 -51.66 139.68 -52 139 C-51.02905273 136.8203125 -51.02905273 136.8203125 -49.49609375 134.125 C-48.93776855 133.13628906 -48.37944336 132.14757812 -47.80419922 131.12890625 C-46.91112061 129.58009766 -46.91112061 129.58009766 -46 128 C-45.15912842 126.52853516 -45.15912842 126.52853516 -44.30126953 125.02734375 C-42.56783358 122.0105988 -40.81753769 119.00422294 -39.0625 116 C-38.48048828 114.99710937 -37.89847656 113.99421875 -37.29882812 112.9609375 C-33.85915708 107.06435856 -30.30560901 101.26556612 -26.58813477 95.53979492 C-24.36235412 91.98025671 -22.39997579 88.29471276 -20.421875 84.59375 C-18.43018156 80.96055098 -16.23677449 77.48673671 -14 74 C-10.00380591 78.61099318 -7.04294921 83.73904433 -4 89 C-3.25943359 90.27617187 -3.25943359 90.27617187 -2.50390625 91.578125 C1 97.73229462 1 97.73229462 1 100 C6.94 100.99 6.94 100.99 13 102 C8.62236999 93.03003333 4.12304943 84.18779501 -0.94116211 75.58203125 C-6.16903086 66.54895579 -6.16903086 66.54895579 -7 62 C-5.98046875 58.8125 -5.98046875 58.8125 -4.1875 56 C-3.60355469 55.05125 -3.01960937 54.1025 -2.41796875 53.125 C-1.71607422 52.073125 -1.71607422 52.073125 -1 51 C0.32 51 1.64 51 3 51 C4.67760091 53.26018595 6.02161757 55.36768958 7.375 57.8125 C7.77074219 58.50029541 8.16648437 59.18809082 8.57421875 59.89672852 C9.73330455 61.92206105 10.87061706 63.95798437 12 66 C12.79277344 67.42699219 12.79277344 67.42699219 13.6015625 68.8828125 C14.54548164 70.60717874 15.48283783 72.33515154 16.4140625 74.06640625 C22.74497553 85.77703601 29.35305705 97.31028683 36.609375 108.4765625 C40 113.71488764 40 113.71488764 40 117 C33.68307984 117.1269082 27.36648906 117.21439585 21.04858398 117.2746582 C18.90002151 117.29978285 16.75154435 117.33388861 14.60327148 117.37719727 C11.51264388 117.43793792 8.42314737 117.46623044 5.33203125 117.48828125 C4.37351761 117.51408768 3.41500397 117.5398941 2.42744446 117.56648254 C-2.17664668 117.5684133 -4.28967525 117.54376663 -8.0402832 114.67260742 C-10.07269 111.9008674 -11.52235847 109.09601083 -13 106 C-13.66 105.67 -14.32 105.34 -15 105 C-15.24492188 105.67546875 -15.48984375 106.3509375 -15.7421875 107.046875 C-17.26747019 110.62797348 -19.15680748 113.89781344 -21.125 117.25 C-23.71214744 120.96303074 -23.71214744 120.96303074 -25 125 C-24.14079956 124.98143951 -23.28159912 124.96287903 -22.3963623 124.9437561 C-14.27523028 124.78084251 -6.15668797 124.68578984 1.9661026 124.66578102 C6.14204603 124.65313153 10.31438093 124.61482312 14.48925781 124.51660156 C18.52352375 124.42265313 22.55299926 124.39777254 26.58824158 124.41953659 C28.12256643 124.41591321 29.65704379 124.38793842 31.19044495 124.33458328 C36.05354838 124.17499207 40.37266506 124.28266348 45 126 C48.97252048 129.83746138 50.89172508 135.00203692 53 140 C54.00981592 141.7992817 55.04256584 143.5863127 56.1171875 145.34765625 C56.80941406 146.53198242 56.80941406 146.53198242 57.515625 147.74023438 C58.44318454 149.32481526 59.37296919 150.90809523 60.3046875 152.49023438 C60.7584375 153.26818359 61.2121875 154.04613281 61.6796875 154.84765625 C62.10169434 155.57009521 62.52370117 156.29253418 62.95849609 157.03686523 C64 159 64 159 64.90625 161.9765625 C65.88506499 164.35408442 65.88506499 164.35408442 69.0390625 164.92578125 C70.22242188 165.05339844 71.40578125 165.18101562 72.625 165.3125 C74.40777344 165.52326172 74.40777344 165.52326172 76.2265625 165.73828125 C77.14179687 165.82464844 78.05703125 165.91101563 79 166 C78.41992188 165.04480469 77.83984375 164.08960938 77.2421875 163.10546875 C76.45300149 161.7995538 75.66394614 160.49355988 74.875 159.1875 C74.49601563 158.56423828 74.11703125 157.94097656 73.7265625 157.29882812 C70.89679764 152.60613473 68.25656809 147.82807613 65.64697266 143.01000977 C62.58975638 137.42263659 59.41503284 131.90176974 56.25 126.375 C55.89895203 125.76127533 55.54790405 125.14755066 55.18621826 124.51522827 C49.90116522 115.27710913 44.56354993 106.07204988 39.13574219 96.91699219 C37.16722722 93.59438266 35.20852267 90.26600633 33.25 86.9375 C32.64273071 85.90592773 32.64273071 85.90592773 32.02319336 84.85351562 C28.39423765 78.6831043 24.79077117 72.49793437 21.1875 66.3125 C14.50721669 54.84599883 7.76598183 43.4161061 1 32 C-2.30858865 35.17381926 -3.97599634 37.87702959 -6 42 C-7.62838983 44.60043887 -9.3000124 47.16855029 -10.98828125 49.73046875 C-13.25518279 53.41473397 -15.29517348 57.19183965 -17.35180664 60.99633789 C-20.15195061 66.09931097 -23.1127312 71.10751677 -26.0625 76.125 C-29.7317389 82.37337023 -33.36854176 88.62988008 -36.86694336 94.97558594 C-38.58761887 98.04988917 -40.41600289 101.05492935 -42.25 104.0625 C-46.29400104 110.74560839 -50.15345801 117.52150989 -53.95703125 124.34375 C-57.09270558 129.96459324 -60.2907698 135.53105075 -63.6875 141 C-71.94875492 154.33333162 -71.94875492 154.33333162 -79.75 167.9375 C-80.141875 168.61554688 -80.53375 169.29359375 -80.9375 169.9921875 C-82.06652394 172.00483213 -82.06652394 172.00483213 -82.8125 174.3203125 C-83.94394879 177.02636085 -84.58453598 178.28771454 -87 180 C-92.59471025 181.00812124 -98.37060528 180.44687588 -104 180 C-103.3318084 176.50104094 -101.92073923 173.87632298 -100.12109375 170.81640625 C-99.53328125 169.81246826 -98.94546875 168.80853027 -98.33984375 167.77416992 C-97.71207031 166.71431885 -97.08429687 165.65446777 -96.4375 164.5625 C-95.80070313 163.47880127 -95.16390625 162.39510254 -94.5078125 161.27856445 C-90.63473242 154.70527312 -86.68199118 148.19065461 -82.6484375 141.71484375 C-80.52351489 138.21526741 -78.59521657 134.62648368 -76.66015625 131.01953125 C-74.69714758 127.44916489 -72.63809761 123.94324005 -70.5625 120.4375 C-66.23999393 113.13358163 -61.98449473 105.79277718 -57.75 98.4375 C-47.70285758 80.99429705 -37.56448275 63.60435593 -27.33642578 46.26660156 C-25.81514351 43.68648016 -24.29634933 41.10489988 -22.77734375 38.5234375 C-17.48361541 29.53637485 -12.15921657 20.57945888 -6.65625 11.71875 C-4.31644063 7.87793085 -2.12889683 3.96097631 0 0 Z " fill="#EDD10E" transform="translate(630,111)"/>
<path d="M0 0 C1.11858398 0.00326294 1.11858398 0.00326294 2.25976562 0.0065918 C4.5382459 0.00975365 6.81543021 -0.01370955 9.09375 -0.0390625 C10.53645669 -0.04133525 11.97916688 -0.0420391 13.421875 -0.04101562 C15.39800781 -0.04548706 15.39800781 -0.04548706 17.4140625 -0.05004883 C18.44789062 0.07281494 19.48171875 0.19567871 20.546875 0.32226562 C22.84297605 3.7664172 22.80401296 5.05466796 22.8253479 9.11186218 C22.83651138 10.31921021 22.84767487 11.52655823 22.85917664 12.77049255 C22.86154165 14.1102597 22.86371729 15.45002719 22.86572266 16.78979492 C22.87501972 18.19909237 22.88518806 19.6083843 22.89616394 21.01766968 C22.92350318 24.84587061 22.93862491 28.67403468 22.95159197 32.50230765 C22.96720539 36.50221733 22.99400128 40.50205151 23.0196228 44.50190735 C23.06644234 52.07725449 23.10317105 59.65261579 23.13629568 67.22803384 C23.18163503 77.46395295 23.24251897 87.69977875 23.30254364 97.93562031 C23.39671502 114.06445534 23.47008011 130.19331683 23.546875 146.32226562 C50.606875 146.32226562 77.666875 146.32226562 105.546875 146.32226562 C107.56031533 150.34914628 107.80319665 151.97677344 107.8125 156.33007812 C107.81636719 158.05677734 107.81636719 158.05677734 107.8203125 159.81835938 C107.81257813 161.01589844 107.80484375 162.2134375 107.796875 163.44726562 C107.80847656 165.25517578 107.80847656 165.25517578 107.8203125 167.09960938 C107.81773438 168.24816406 107.81515625 169.39671875 107.8125 170.58007812 C107.81024414 171.63340332 107.80798828 172.68672852 107.80566406 173.77197266 C107.546875 176.32226562 107.546875 176.32226562 105.546875 178.32226562 C102.75813762 178.63876181 100.06300952 178.83198536 97.2644043 178.93676758 C95.99548481 178.99305942 95.99548481 178.99305942 94.7009306 179.05048847 C84.82544335 179.45216794 74.94859039 179.48640971 65.06640625 179.49023438 C63.07248411 179.49345883 61.07856219 179.49682373 59.0846405 179.50032043 C54.94761607 179.50624656 50.81061235 179.50816662 46.67358398 179.50756836 C41.38709319 179.5074659 36.10073417 179.52123288 30.81427479 179.53834057 C26.71438488 179.54946853 22.6145271 179.55148749 18.51462364 179.55095863 C16.5646792 179.5521331 14.61473378 179.55652474 12.66480446 179.564291 C9.9454679 179.57412817 7.22642167 179.57120059 4.50708008 179.56518555 C3.31862236 179.57361481 3.31862236 179.57361481 2.1061554 179.58221436 C-10.26242074 179.51296988 -10.26242074 179.51296988 -13.453125 176.32226562 C-13.55456873 174.08661904 -13.58390685 171.84770148 -13.58683777 169.60975647 C-13.58910333 168.89977507 -13.59136888 168.18979366 -13.59370309 167.45829767 C-13.60007105 165.06145634 -13.59921195 162.66467115 -13.59838867 160.26782227 C-13.60137842 158.55665513 -13.60478052 156.84548868 -13.60856628 155.13432312 C-13.61742917 150.47323609 -13.61974535 145.81216739 -13.62038207 141.15107274 C-13.62132924 137.26664104 -13.62500531 133.38221365 -13.62855417 129.4977836 C-13.63670739 120.33714324 -13.63913761 111.17651271 -13.63842773 102.01586914 C-13.63782668 92.55065989 -13.64838205 83.08550758 -13.6641714 73.62031275 C-13.67722517 65.50737458 -13.68261255 57.39445508 -13.68197232 49.28150648 C-13.6817167 44.43006768 -13.68460308 39.57867944 -13.69515038 34.72725105 C-13.7047951 30.16614833 -13.70493562 25.60514489 -13.69763374 21.04403877 C-13.69658337 19.36620439 -13.6989774 17.68836394 -13.7049942 16.01054001 C-13.7126536 13.72749408 -13.70811001 11.44479627 -13.70036316 9.16175842 C-13.70090793 7.88176499 -13.70145269 6.60177156 -13.70201397 5.28299046 C-13.0860868 -2.04393471 -5.68448172 0.02197324 0 0 Z " fill="#000302" transform="translate(1126.453125,110.677734375)"/>
<path d="M0 0 C2.36447144 -0.37752342 2.36447144 -0.37752342 5.39013672 -0.38095093 C6.53432068 -0.3894104 7.67850464 -0.39786987 8.85736084 -0.40658569 C10.11872864 -0.400513 11.38009644 -0.39444031 12.6796875 -0.38818359 C14.01662628 -0.39224705 15.3535617 -0.39758766 16.69049072 -0.40411377 C20.32683759 -0.41782031 23.96292985 -0.41247514 27.59928131 -0.40297651 C31.39936525 -0.39539709 35.19942695 -0.40242073 38.99951172 -0.40713501 C45.38187588 -0.4125976 51.764136 -0.40538782 58.14648438 -0.39111328 C65.53219121 -0.37478573 72.91764963 -0.38007389 80.30335045 -0.3965925 C86.63714924 -0.4101931 92.97087311 -0.41213404 99.30468178 -0.40427649 C103.09083759 -0.39959209 106.87687653 -0.39899604 110.6630249 -0.40888596 C114.2220603 -0.41753273 117.7807745 -0.41157617 121.33977509 -0.39420319 C123.27405858 -0.38832418 125.20836915 -0.3972734 127.14263916 -0.40658569 C128.8589151 -0.39389648 128.8589151 -0.39389648 130.60986328 -0.38095093 C132.1075676 -0.37925431 132.1075676 -0.37925431 133.63552856 -0.37752342 C134.41580414 -0.25294069 135.19607971 -0.12835796 136 0 C138.17237362 3.25856044 138.25602651 4.22642344 138.265625 8 C138.26820313 8.969375 138.27078125 9.93875 138.2734375 10.9375 C138.26570312 11.948125 138.25796875 12.95875 138.25 14 C138.25773438 15.010625 138.26546875 16.02125 138.2734375 17.0625 C138.27085937 18.031875 138.26828125 19.00125 138.265625 20 C138.26336914 20.886875 138.26111328 21.77375 138.25878906 22.6875 C138 25 138 25 136 28 C133.86129761 28.36076355 133.86129761 28.36076355 131.18310547 28.34057617 C130.18221893 28.34034958 129.1813324 28.34012299 128.15011597 28.33988953 C127.06674957 28.32440567 125.98338318 28.30892181 124.8671875 28.29296875 C123.20672897 28.28660149 123.20672897 28.28660149 121.51272583 28.28010559 C117.9665729 28.26327214 114.42098203 28.2256108 110.875 28.1875 C108.47526861 28.17245922 106.07552833 28.15876977 103.67578125 28.14648438 C97.78366141 28.11335338 91.89187085 28.06310777 86 28 C85.99668985 28.7454476 85.99337971 29.4908952 85.98996925 30.25893211 C85.90883419 48.37713366 85.81677319 66.49524932 85.71247292 84.61333275 C85.6622995 93.37501648 85.61585724 102.13669063 85.578125 110.8984375 C85.54523746 118.53302456 85.50542438 126.16753828 85.45720994 133.80204451 C85.43191259 137.84640362 85.41014101 141.89071389 85.39665604 145.93513107 C85.38386486 149.73869886 85.36184276 153.5420994 85.33261681 157.34557533 C85.32351788 158.74441665 85.31784543 160.14328492 85.31578636 161.54215431 C85.31248027 163.44638403 85.29585673 165.35057698 85.2784729 167.25473022 C85.27017676 168.85588464 85.27017676 168.85588464 85.26171303 170.4893856 C85 173 85 173 83 175 C79.95898437 175.25878906 79.95898437 175.25878906 76.09375 175.265625 C75.07299377 175.26849518 75.07299377 175.26849518 74.03161621 175.27142334 C72.59252554 175.27278463 71.15342256 175.26909205 69.71435547 175.26074219 C67.50850913 175.25004128 65.30347719 175.26063872 63.09765625 175.2734375 C61.70051903 175.27211589 60.30338232 175.26955348 58.90625 175.265625 C57.63072266 175.26336914 56.35519531 175.26111328 55.04101562 175.25878906 C52 175 52 175 50 173 C49.74108028 170.50779629 49.74108028 170.50779629 49.72825623 167.29942322 C49.71367874 165.48000969 49.71367874 165.48000969 49.69880676 163.62384033 C49.69803649 162.2725831 49.69744751 160.92132575 49.69702148 159.57006836 C49.68936359 158.15268975 49.68081785 156.73531571 49.67144775 155.31794739 C49.65314476 152.26225722 49.64112186 149.20662856 49.63390923 146.15089226 C49.62244889 141.32387977 49.59700499 136.49700372 49.56959534 131.6700592 C49.52791439 124.03919832 49.49551271 116.40833096 49.46712118 108.77741009 C49.41616315 95.10272018 49.35412342 81.42808668 49.28178078 67.75349337 C49.25679797 62.95013433 49.23739382 58.14679345 49.22239864 53.34339321 C49.2122264 50.36168848 49.1980808 47.38001192 49.18292236 44.39832878 C49.1767437 43.010342 49.17229744 41.62234633 49.16966438 40.2343483 C49.1658789 38.34741545 49.15551674 36.46049913 49.14476013 34.57359314 C49.14090522 33.51520705 49.1370503 32.45682096 49.13307858 31.36636257 C49.26608474 29.04398874 49.26608474 29.04398874 48 28 C46.54176566 27.92256222 45.07978127 27.91410489 43.61962891 27.93408203 C42.68841217 27.94384064 41.75719543 27.95359924 40.79776001 27.96365356 C39.27751724 27.98551224 39.27751724 27.98551224 37.7265625 28.0078125 C35.60156729 28.02533103 33.47656698 28.04223909 31.3515625 28.05859375 C27.98488436 28.08957545 24.6184575 28.12508997 21.25195312 28.17138672 C18.01429053 28.21363774 14.776925 28.23714549 11.5390625 28.2578125 C10.02489243 28.28574387 10.02489243 28.28574387 8.48013306 28.3142395 C7.07385147 28.31942093 7.07385147 28.31942093 5.63916016 28.32470703 C4.81388824 28.33438507 3.98861633 28.34406311 3.13833618 28.35403442 C0.48251091 27.91432173 -0.38972926 27.12066363 -2 25 C-2.37231445 22.6875 -2.37231445 22.6875 -2.36328125 20 C-2.36231445 18.5459375 -2.36231445 18.5459375 -2.36132812 17.0625 C-2.34521484 16.051875 -2.32910156 15.04125 -2.3125 14 C-2.31572266 12.989375 -2.31894531 11.97875 -2.32226562 10.9375 C-2.26714286 3.40071429 -2.26714286 3.40071429 0 0 Z " fill="#000302" transform="translate(227,114)"/>
<path d="M0 0 C6.37203593 -0.0505963 12.7440203 -0.08568957 19.11621094 -0.10986328 C21.28517594 -0.11993789 23.45412731 -0.13359798 25.62304688 -0.15087891 C28.73571126 -0.17506323 31.84819651 -0.18646832 34.9609375 -0.1953125 C35.934935 -0.20563507 36.9089325 -0.21595764 37.91244507 -0.22659302 C39.26361923 -0.22681961 39.26361923 -0.22681961 40.64208984 -0.22705078 C41.43706879 -0.231492 42.23204773 -0.23593323 43.05111694 -0.24050903 C45 0 45 0 47 2 C47.24609566 4.46376228 47.24609566 4.46376228 47.24050903 7.63137817 C47.24325836 8.82893738 47.24600769 10.02649658 47.24884033 11.26034546 C47.24176162 12.59430031 47.23449199 13.92825416 47.22705078 15.26220703 C47.22648687 16.66149894 47.22680283 18.06079144 47.22793579 19.46008301 C47.22851109 23.26567985 47.21672817 27.07115136 47.20278788 30.876719 C47.19031002 34.85122707 47.18911235 38.82573781 47.18673706 42.80026245 C47.18051361 50.32965829 47.16409113 57.85899626 47.14403808 65.38836658 C47.12170595 73.95897937 47.11069242 82.52959488 47.10064721 91.1002295 C47.07972562 108.73351918 47.04453289 126.36675494 47 144 C46.67 144 46.34 144 46 144 C46 97.47 46 50.94 46 3 C30.49 3 14.98 3 -1 3 C-0.67 2.01 -0.34 1.02 0 0 Z " fill="#C7BBBB" transform="translate(230,141)"/>
<path d="M0 0 C14.52 0 29.04 0 44 0 C44.495 1.485 44.495 1.485 45 3 C30.48 3 15.96 3 1 3 C1 50.52 1 98.04 1 147 C0.67 147 0.34 147 0 147 C0 98.49 0 49.98 0 0 Z " fill="#C8BCBC" transform="translate(313,141)"/>
<path d="M0 0 C0.66 0 1.32 0 2 0 C0.9318153 5.11365014 -0.23107476 10.07227969 -2 15 C-2.66 15 -3.32 15 -4 15 C-3.5253725 12.6865641 -3.04517721 10.37426981 -2.5625 8.0625 C-2.29566406 6.77472656 -2.02882813 5.48695313 -1.75390625 4.16015625 C-1 1 -1 1 0 0 Z " fill="#CCC8C8" transform="translate(841,221)"/>
<path d="M0 0 C2 2 2 2 2.265625 3.875 C2.26046875 4.57625 2.2553125 5.2775 2.25 6 C2.25515625 6.70125 2.2603125 7.4025 2.265625 8.125 C2 10 2 10 0 12 C-0.19573608 10.56359829 -0.38127816 9.12580496 -0.5625 7.6875 C-0.66691406 6.88699219 -0.77132813 6.08648437 -0.87890625 5.26171875 C-1 3 -1 3 0 0 Z " fill="#808382" transform="translate(452,165)"/>
</svg>
